<?xml version="1.0" standalone="no"?>
<!DOCTYPE svg PUBLIC "-//W3C//DTD SVG 20010904//EN"
 "http://www.w3.org/TR/2001/REC-SVG-20010904/DTD/svg10.dtd">
<svg version="1.0" xmlns="http://www.w3.org/2000/svg"
 width="1328.000000pt" height="1328.000000pt" viewBox="0 0 1328.000000 1328.000000"
 preserveAspectRatio="xMidYMid meet">
<metadata>
Created by potrace 1.14, written by Peter Selinger 2001-2017
</metadata>
<g transform="translate(0.000000,1328.000000) scale(0.100000,-0.100000)"
fill="#000000" stroke="none">
<path d="M6475 13179 c-82 -49 -157 -92 -165 -96 -14 -7 -43 -23 -265 -153
-49 -28 -108 -62 -130 -75 -22 -12 -83 -47 -135 -77 -52 -30 -153 -89 -225
-130 -71 -41 -249 -144 -394 -228 -286 -165 -281 -162 -421 -242 -269 -155
-553 -319 -835 -483 -55 -32 -113 -65 -130 -75 l-30 -17 -3 -2036 -2 -2037
-700 0 -700 0 -1 23 c0 12 -1 743 -1 1625 -1 1009 -4 1602 -10 1602 -6 0 -51
-24 -101 -54 -51 -29 -110 -64 -132 -76 -50 -28 -342 -197 -411 -238 -28 -16
-76 -44 -105 -60 -30 -17 -112 -64 -184 -106 -71 -41 -214 -124 -317 -183
l-188 -107 0 -3317 0 -3317 82 -49 c46 -26 88 -50 93 -52 6 -2 38 -22 73 -43
34 -21 64 -38 66 -38 3 0 40 -21 83 -46 43 -26 240 -140 438 -254 198 -114
415 -240 483 -279 67 -39 124 -71 126 -71 2 0 4 793 4 1762 0 970 1 1770 1
1778 1 13 85 15 699 15 l697 0 3 -2185 2 -2185 122 -70 c67 -38 145 -83 172
-98 28 -16 67 -38 86 -49 47 -28 280 -163 322 -186 76 -44 165 -96 188 -110
14 -9 27 -17 30 -17 3 0 37 -19 75 -42 185 -108 294 -172 335 -195 93 -52 127
-72 215 -123 50 -29 106 -62 125 -73 19 -10 85 -48 146 -84 61 -36 117 -68
125 -71 8 -4 28 -15 44 -26 26 -15 248 -144 415 -240 30 -17 62 -36 70 -41 8
-6 22 -13 30 -17 8 -4 43 -24 78 -45 34 -21 65 -38 68 -38 3 0 18 -8 32 -18
15 -11 52 -33 82 -49 30 -17 75 -42 100 -56 l45 -26 55 33 c30 18 87 51 125
74 39 22 195 113 348 201 153 89 281 161 284 161 3 0 17 8 31 19 15 10 47 29
72 43 25 14 86 49 135 78 50 29 115 66 145 83 30 17 98 56 150 87 52 31 102
59 110 63 8 4 31 17 50 28 32 20 426 248 531 308 82 47 334 192 349 202 104
63 312 179 320 179 5 0 10 5 10 10 0 6 4 10 9 10 4 0 102 55 217 121 115 67
328 190 474 274 146 84 321 186 390 225 69 40 143 83 165 95 22 13 81 46 130
75 50 29 110 64 135 78 25 14 52 30 60 36 14 10 16 362 15 3319 0 1820 3 3311
6 3313 6 3 114 -55 247 -134 29 -18 55 -32 57 -32 4 0 133 -76 185 -109 14 -8
28 -14 33 -13 4 1 7 -2 7 -8 0 -5 4 -10 9 -10 5 0 67 -34 136 -75 70 -41 129
-75 131 -75 1 0 69 -39 149 -86 272 -159 457 -264 465 -264 5 0 8 371 8 824
l0 824 -292 168 c-160 93 -307 177 -326 188 -19 10 -47 27 -62 37 -14 11 -29
19 -32 19 -3 0 -43 22 -88 49 -46 27 -100 58 -120 70 -60 33 -88 49 -358 206
-140 81 -268 156 -285 165 -16 9 -54 31 -83 49 -29 17 -54 31 -56 31 -2 0 -45
25 -95 55 -51 30 -93 55 -95 55 -2 0 -75 42 -162 93 -87 51 -166 96 -174 100
-8 4 -24 13 -35 20 -11 7 -59 34 -105 61 -47 27 -118 69 -157 93 -40 24 -75
43 -78 43 -2 0 -29 16 -59 35 -30 19 -57 35 -60 35 -3 0 -38 20 -78 44 -40 23
-179 104 -308 178 -129 75 -251 145 -270 156 -19 12 -46 27 -60 35 -36 20 -79
45 -225 129 -71 42 -146 85 -165 96 -19 10 -192 110 -385 222 -192 111 -408
235 -480 276 -71 41 -137 79 -145 84 -18 11 -163 94 -582 337 -174 101 -322
183 -330 182 -7 0 -80 -41 -163 -90z m262 -1615 c43 -26 94 -56 113 -67 19
-10 107 -61 195 -112 88 -51 176 -102 195 -113 100 -57 562 -323 608 -351 29
-17 54 -31 56 -31 2 0 34 -18 70 -40 36 -22 69 -40 73 -40 3 0 14 -6 22 -14 9
-8 36 -25 61 -38 45 -25 62 -34 175 -100 33 -20 80 -47 105 -60 25 -14 86 -49
135 -78 50 -29 106 -61 125 -72 19 -11 60 -35 90 -53 30 -18 75 -44 100 -57
25 -14 86 -49 135 -78 50 -29 105 -61 123 -71 17 -11 47 -27 65 -38 17 -10
106 -61 197 -114 l165 -95 1 -1640 c2 -1589 1 -1639 -17 -1635 -10 3 -24 11
-30 19 -6 8 -15 14 -19 14 -5 0 -107 57 -227 126 -120 70 -333 193 -473 274
-140 80 -329 189 -420 242 -485 280 -740 427 -780 450 -25 14 -68 39 -96 55
-27 17 -70 41 -95 55 -24 14 -111 64 -192 112 -82 47 -151 86 -155 86 -3 0
-13 6 -21 14 -9 7 -41 27 -71 43 -88 48 -253 144 -281 164 l-26 18 0 1636 c0
899 4 1635 8 1635 4 0 43 -21 86 -46z m-1375 -4185 c106 -62 207 -120 223
-129 80 -46 811 -468 890 -514 50 -29 110 -64 135 -78 25 -14 142 -81 260
-150 118 -68 312 -180 430 -248 118 -68 243 -140 277 -162 34 -21 65 -38 67
-38 3 0 29 -14 58 -31 71 -43 267 -156 358 -208 l45 -26 0 -1645 0 -1645 -45
-26 c-57 -32 -53 -30 -440 -254 -179 -103 -341 -196 -360 -207 -19 -11 -72
-42 -118 -69 -45 -27 -84 -49 -86 -49 -2 0 -75 -42 -162 -93 -88 -51 -166 -96
-174 -100 -8 -4 -29 -16 -46 -26 l-31 -19 0 1634 c0 899 -2 1637 -6 1640 -3 3
-43 -15 -89 -41 -46 -27 -94 -54 -108 -62 -14 -8 -43 -25 -65 -38 -22 -13 -56
-32 -75 -43 -19 -10 -75 -43 -125 -72 -49 -29 -110 -64 -135 -78 -25 -14 -57
-32 -72 -41 -45 -27 -369 -214 -420 -243 -27 -15 -122 -70 -212 -123 -91 -52
-166 -95 -169 -95 -2 0 -4 763 -4 1695 0 932 2 1695 3 1695 1 0 90 -50 196
-111z"/>
</g>
</svg>
